<svg width="227" height="105" viewBox="0 0 227 105" fill="none" xmlns="http://www.w3.org/2000/svg">
<path d="M69.123 55.0575C68.867 55.0692 68.6173 55.1411 68.3941 55.267C68.1709 55.393 67.9805 55.5695 67.8382 55.7826C67.6959 55.9957 67.6056 56.239 67.5748 56.4933C67.544 56.7477 67.5734 57.0059 67.6607 57.2468C71.9916 69.8926 67.9713 83.8785 57.5916 92.3033C47.2119 100.728 32.6936 101.781 21.2041 94.9458C9.71419 88.1111 3.71868 74.8541 6.17376 61.715C6.25128 61.2893 6.15695 60.8503 5.91141 60.4939C5.66588 60.1375 5.28913 59.8928 4.86362 59.8135C4.43811 59.7342 3.99849 59.8266 3.64098 60.0705C3.28347 60.3144 3.03717 60.6902 2.956 61.1152C0.25083 75.5904 6.87302 90.2248 19.5313 97.7548C32.1892 105.284 48.2188 104.125 59.6541 94.8441C71.0894 85.5625 75.5222 70.1191 70.751 56.1873C70.6408 55.8467 70.4219 55.5517 70.1278 55.3476C69.8337 55.1435 69.4807 55.0416 69.123 55.0575V55.0575Z" fill="white"/>
<path d="M33.536 62.4495C33.5001 62.4483 33.4641 62.4483 33.4282 62.4495C20.2629 63.8971 9.69065 73.2755 7.8057 85.4293C7.76797 85.6436 7.77342 85.8633 7.82171 86.0754C7.87 86.2875 7.96016 86.4876 8.08691 86.6644C8.21366 86.8412 8.37445 86.9911 8.55985 87.105C8.74525 87.2189 8.95153 87.2945 9.16659 87.3276C9.38165 87.3608 9.60116 87.3509 9.81226 87.2981C10.0234 87.2453 10.2218 87.1508 10.3959 87.0204C10.5701 86.8899 10.7164 86.726 10.8263 86.5383C10.9363 86.3506 11.0076 86.143 11.0362 85.9273C12.6763 75.3548 21.9517 66.9998 33.7858 65.6991C34.2034 65.648 34.5852 65.4381 34.8518 65.1129C35.1184 64.7876 35.2494 64.3717 35.2174 63.9524C35.1854 63.533 34.9929 63.1425 34.68 62.8614C34.3671 62.5803 33.9578 62.4303 33.5373 62.4431L33.536 62.4495Z" fill="white"/>
<path fill-rule="evenodd" clip-rule="evenodd" d="M35.5609 9.47895C29.8109 9.47895 19.6496 11.9745 19.6496 11.9745L18.5322 12.2426L17.5875 20.7386L20.8373 21.0961L21.5205 14.9746C22.8566 14.6706 31.1777 12.747 35.5609 12.747C39.9425 12.747 48.2456 14.6699 49.5886 14.9746L50.2783 21.9006L53.5281 21.5734L52.5958 12.241L51.4657 11.9729C51.4657 11.9729 41.3112 9.47736 35.5609 9.47736V9.47895Z" fill="white"/>
<path fill-rule="evenodd" clip-rule="evenodd" d="M35.9096 1.95936e-05C35.7406 -0.000808054 35.5726 0.0245897 35.4114 0.0752422L9.25867 8.29705C8.92209 8.40203 8.62849 8.61297 8.42165 8.89843C8.21482 9.18389 8.10585 9.52847 8.111 9.88091C8.11615 10.2334 8.23514 10.5747 8.45022 10.854C8.6653 11.1333 8.96494 11.3357 9.30444 11.4309L15.8426 13.2691L19.1117 14.1886L20.7462 14.6483L21.6338 11.5011L19.9993 11.0418L16.7302 10.1227L15.466 9.76518L35.904 3.34333L56.3358 9.76518L55.0717 10.1227L51.8026 11.0418L50.168 11.5011L51.0556 14.6483L52.6901 14.1886L55.9592 13.2691L62.4974 11.4309C62.8369 11.3357 63.1365 11.1333 63.3516 10.854C63.5667 10.5747 63.6857 10.2334 63.6908 9.88091C63.696 9.52847 63.587 9.18389 63.3802 8.89843C63.1734 8.61297 62.8798 8.40203 62.5432 8.29705L36.3905 0.0752422C36.2355 0.0265217 36.074 0.00114658 35.9115 1.95936e-05H35.9096Z" fill="white"/>
<path fill-rule="evenodd" clip-rule="evenodd" d="M9.75128 95.59C9.49574 95.5891 9.24355 95.6482 9.01495 95.7624C8.78635 95.8765 8.58771 96.0428 8.43497 96.2476C8.28223 96.4524 8.17964 96.69 8.13545 96.9416C8.09125 97.1932 8.10667 97.452 8.18048 97.6966L9.80227 103.371C9.85581 103.584 9.95152 103.783 10.0837 103.958C10.2159 104.133 10.3819 104.279 10.5717 104.388C10.7616 104.497 10.9715 104.567 11.189 104.594C11.4065 104.621 11.6271 104.603 11.8378 104.543C12.0484 104.483 12.2448 104.38 12.4151 104.243C12.5855 104.105 12.7265 103.934 12.8297 103.741C12.9328 103.548 12.996 103.336 13.0156 103.118C13.0352 102.9 13.0107 102.68 12.9435 102.471L11.3217 96.7963C11.2281 96.4512 11.0237 96.1463 10.74 95.9284C10.4564 95.7105 10.109 95.5915 9.75128 95.59V95.59Z" fill="white"/>
<path fill-rule="evenodd" clip-rule="evenodd" d="M14.3251 95.1967C14.0695 95.1958 13.8174 95.2549 13.5888 95.3691C13.3602 95.4832 13.1615 95.6495 13.0088 95.8543C12.856 96.0591 12.7534 96.2967 12.7093 96.5483C12.6651 96.7999 12.6805 97.0587 12.7543 97.3033L14.3761 102.978C14.4296 103.19 14.5253 103.39 14.6575 103.565C14.7897 103.739 14.9557 103.885 15.1455 103.995C15.3354 104.104 15.5454 104.174 15.7628 104.201C15.9803 104.227 16.2009 104.21 16.4116 104.15C16.6222 104.089 16.8186 103.987 16.989 103.849C17.1593 103.712 17.3003 103.541 17.4035 103.348C17.5066 103.155 17.5698 102.943 17.5894 102.725C17.609 102.506 17.5845 102.287 17.5173 102.078L15.8956 96.403C15.8019 96.0579 15.5975 95.753 15.3138 95.5351C15.0302 95.3172 14.6828 95.1982 14.3251 95.1967Z" fill="white"/>
<path fill-rule="evenodd" clip-rule="evenodd" d="M19.1654 95.59C18.9099 95.5891 18.6577 95.6482 18.4291 95.7624C18.2005 95.8765 18.0019 96.0428 17.8491 96.2476C17.6964 96.4524 17.5938 96.69 17.5496 96.9416C17.5054 97.1932 17.5208 97.452 17.5946 97.6966L19.2164 103.371C19.27 103.584 19.3657 103.783 19.4979 103.958C19.63 104.133 19.796 104.279 19.9859 104.388C20.1758 104.497 20.3857 104.567 20.6032 104.594C20.8207 104.621 21.0413 104.603 21.2519 104.543C21.4626 104.483 21.6589 104.38 21.8293 104.243C21.9997 104.105 22.1407 103.934 22.2438 103.741C22.347 103.548 22.4102 103.336 22.4298 103.118C22.4493 102.9 22.4248 102.68 22.3577 102.471L20.7359 96.7963C20.6422 96.4512 20.4379 96.1463 20.1542 95.9284C19.8705 95.7105 19.5232 95.5915 19.1654 95.59V95.59Z" fill="white"/>
<path fill-rule="evenodd" clip-rule="evenodd" d="M65.3285 95.9839C64.9807 95.9977 64.6463 96.1225 64.3741 96.3395C64.102 96.5564 63.9062 96.8543 63.8153 97.1902L62.1935 102.865C62.1264 103.074 62.1018 103.294 62.1214 103.512C62.141 103.73 62.2042 103.942 62.3074 104.135C62.4105 104.328 62.5515 104.499 62.7219 104.637C62.8923 104.774 63.0886 104.876 63.2992 104.937C63.5099 104.997 63.7305 105.014 63.948 104.988C64.1655 104.961 64.3754 104.891 64.5653 104.782C64.7552 104.673 64.9211 104.526 65.0533 104.352C65.1855 104.177 65.2812 103.978 65.3347 103.765L66.9565 98.0905C67.032 97.8412 67.0467 97.5773 66.9996 97.3211C66.9524 97.065 66.8447 96.8241 66.6854 96.618C66.5261 96.4119 66.3199 96.2466 66.0838 96.1363C65.8478 96.0261 65.5889 95.9738 65.3285 95.9839V95.9839Z" fill="white"/>
<path fill-rule="evenodd" clip-rule="evenodd" d="M60.3621 95.9839C60.0143 95.9977 59.6799 96.1225 59.4077 96.3395C59.1355 96.5564 58.9397 96.8543 58.8489 97.1902L57.2271 102.865C57.1599 103.074 57.1354 103.294 57.155 103.512C57.1746 103.73 57.2378 103.942 57.341 104.135C57.4441 104.328 57.5851 104.499 57.7555 104.637C57.9258 104.774 58.1222 104.876 58.3328 104.937C58.5435 104.997 58.7641 105.014 58.9816 104.988C59.1991 104.961 59.409 104.891 59.5989 104.782C59.7887 104.673 59.9547 104.526 60.0869 104.352C60.2191 104.177 60.3148 103.978 60.3683 103.765L61.9901 98.0905C62.0656 97.8412 62.0803 97.5773 62.0331 97.3211C61.986 97.065 61.8783 96.8241 61.719 96.618C61.5597 96.4119 61.3534 96.2466 61.1174 96.1363C60.8814 96.0261 60.6224 95.9738 60.3621 95.9839V95.9839Z" fill="white"/>
<path fill-rule="evenodd" clip-rule="evenodd" d="M55.1284 95.9839C54.7806 95.9977 54.4462 96.1225 54.1741 96.3395C53.9019 96.5564 53.7061 96.8543 53.6152 97.1902L51.9934 102.865C51.9263 103.074 51.9018 103.294 51.9213 103.512C51.9409 103.73 52.0041 103.942 52.1073 104.135C52.2104 104.328 52.3514 104.499 52.5218 104.637C52.6922 104.774 52.8885 104.876 53.0992 104.937C53.3098 104.997 53.5304 105.014 53.7479 104.988C53.9654 104.961 54.1753 104.891 54.3652 104.782C54.5551 104.673 54.721 104.526 54.8532 104.352C54.9854 104.177 55.0811 103.978 55.1347 103.765L56.7564 98.0905C56.8319 97.8412 56.8466 97.5773 56.7995 97.3211C56.7523 97.065 56.6446 96.8241 56.4853 96.618C56.326 96.4119 56.1198 96.2466 55.8837 96.1363C55.6477 96.0261 55.3888 95.9738 55.1284 95.9839V95.9839Z" fill="white"/>
<path d="M43.512 62.05C43.1035 62.0761 42.7197 62.2544 42.4364 62.5497C42.1531 62.845 41.9909 63.236 41.9819 63.6451C41.9729 64.0541 42.1176 64.4517 42.3876 64.7593C42.6576 65.0668 43.0331 65.2619 43.44 65.306C52.2931 66.3956 59.8816 71.5044 63.6227 78.7742C63.7156 78.9737 63.8478 79.1522 64.0115 79.2994C64.1751 79.4465 64.3667 79.5593 64.5749 79.6306C64.7831 79.7019 65.0036 79.7303 65.2231 79.7144C65.4426 79.6984 65.6566 79.6382 65.8523 79.5376C66.048 79.437 66.2214 79.2982 66.362 79.129C66.5027 78.9597 66.6077 78.7639 66.6708 78.5531C66.7339 78.3423 66.7538 78.1209 66.7292 77.9023C66.7047 77.6836 66.6362 77.4721 66.528 77.2805C62.251 68.9698 53.6932 63.2763 43.8359 62.0628C43.7272 62.0519 43.6177 62.0519 43.509 62.0628L43.512 62.05Z" fill="white"/>
<path d="M19.1583 29.3589C10.1503 29.3589 2.81288 36.6943 2.81288 45.6999C2.81288 54.7053 10.1503 62.041 19.1583 62.041C28.1663 62.041 35.5038 54.7053 35.5038 45.6999C35.5038 36.6943 28.1663 29.3589 19.1583 29.3589ZM19.1583 32.6272C26.3997 32.6272 32.2347 38.4605 32.2347 45.6999C32.2347 52.9393 26.3997 58.7727 19.1583 58.7727C11.9173 58.7727 6.08197 52.9393 6.08197 45.6999C6.08197 38.4605 11.9173 32.6272 19.1583 32.6272Z" fill="white"/>
<path d="M56.3546 35.9068C54.1476 35.9983 51.9672 36.8298 50.2251 38.3833C49.9016 38.672 49.7061 39.0775 49.6816 39.5103C49.657 39.943 49.8054 40.3677 50.0941 40.6911C50.3829 41.0144 50.7882 41.2096 51.2211 41.2342C51.654 41.2587 52.0788 41.1106 52.4023 40.822C54.7374 38.7396 58.1912 38.5935 60.6897 40.4768C63.1883 42.3604 64.0039 45.722 62.6437 48.539C61.2834 51.3563 58.1451 52.8083 55.1159 52.0243C52.0865 51.2404 50.0469 48.4517 50.2251 45.3281C50.2435 45.1105 50.2181 44.8917 50.1504 44.6841C50.0827 44.4764 49.974 44.2843 49.8309 44.1194C49.6877 43.9544 49.5129 43.8198 49.3169 43.7235C49.1208 43.6272 48.9075 43.5716 48.6894 43.5591C48.4713 43.5467 48.253 43.578 48.0472 43.6513C47.8415 43.7246 47.6525 43.8381 47.4915 43.9857C47.3305 44.1333 47.2007 44.3119 47.1098 44.5105C47.0189 44.709 46.9687 44.9235 46.9622 45.1418C46.6974 49.8015 49.7788 54.0196 54.2987 55.1893C58.8182 56.3586 63.5577 54.1646 65.5872 49.9612C67.6166 45.7578 66.3842 40.6814 62.6564 37.8713C60.7924 36.4659 58.5612 35.8147 56.3546 35.9056V35.9068Z" fill="white"/>
<path d="M56.8222 40.345C56.3878 40.345 55.9712 40.5176 55.6641 40.8246C55.3569 41.1317 55.1843 41.548 55.1843 41.9823C55.1843 42.4166 55.3569 42.8333 55.6641 43.1404C55.9712 43.4475 56.3878 43.62 56.8222 43.62C57.4417 43.62 57.9076 44.0852 57.9076 44.7047C57.9076 44.9197 57.95 45.133 58.0323 45.3316C58.1146 45.5303 58.2352 45.7107 58.3873 45.8628C58.5394 46.0148 58.7199 46.1352 58.9186 46.2175C59.1174 46.2998 59.3303 46.3424 59.5454 46.3424C59.7605 46.3424 59.9735 46.2998 60.1722 46.2175C60.3709 46.1352 60.5514 46.0148 60.7035 45.8628C60.8556 45.7107 60.9762 45.5303 61.0585 45.3316C61.1409 45.133 61.1832 44.9197 61.1832 44.7047C61.1832 42.316 59.2116 40.345 56.8222 40.345Z" fill="white"/>
<path d="M58.3882 29.3589C49.3802 29.3589 42.0428 36.6943 42.0428 45.6999C42.0428 54.7053 49.3802 62.041 58.3882 62.041C67.3962 62.041 74.7336 54.7053 74.7336 45.6999C74.7336 36.6943 67.3962 29.3589 58.3882 29.3589ZM58.3882 32.6272C65.6296 32.6272 71.4645 38.4605 71.4645 45.6999C71.4645 52.9393 65.6296 58.7727 58.3882 58.7727C51.1472 58.7727 45.3118 52.9393 45.3118 45.6999C45.3118 38.4605 51.1472 32.6272 58.3882 32.6272Z" fill="white"/>
<path d="M10.3072 13.9882C7.62488 13.9882 5.42282 16.2086 5.42282 18.8906C5.41975 19.1071 5.45977 19.3222 5.54054 19.5231C5.62131 19.724 5.74122 19.9068 5.89331 20.061C6.04539 20.2152 6.22662 20.3378 6.42645 20.4214C6.62629 20.505 6.84074 20.5479 7.05736 20.5479C7.27398 20.5479 7.48844 20.505 7.68827 20.4214C7.88811 20.3378 8.06933 20.2152 8.22142 20.061C8.3735 19.9068 8.49342 19.724 8.57418 19.5231C8.65495 19.3222 8.69497 19.1071 8.6919 18.8906C8.6919 17.9628 9.40359 17.2561 10.3072 17.2561C11.2104 17.2561 11.9162 17.9628 11.9162 18.8906C11.9162 19.2629 11.8704 19.7874 11.8149 19.9884C11.752 20.1965 11.7314 20.4151 11.7541 20.6313C11.7768 20.8475 11.8425 21.0573 11.9472 21.2478C12.0519 21.4384 12.1936 21.606 12.3639 21.7411C12.5343 21.8762 12.7299 21.9758 12.9393 22.0344C13.1487 22.093 13.3677 22.1093 13.5835 22.0823C13.7992 22.0552 14.0074 21.9853 14.1958 21.8768C14.3843 21.7682 14.5491 21.6232 14.6808 21.4502C14.8125 21.2771 14.9083 21.0796 14.9627 20.8691C15.1752 20.1127 15.185 19.4208 15.185 18.8906C15.185 16.2086 12.9895 13.9882 10.3068 13.9882H10.3072Z" fill="white"/>
<path fill-rule="evenodd" clip-rule="evenodd" d="M7.84248 9.08453V15.6209H11.1116V9.08453H7.84248Z" fill="white"/>
<path d="M16.3114 35.9735C14.1084 36.2481 11.9966 37.2658 10.3862 38.9736C10.239 39.1299 10.1241 39.3136 10.048 39.5143C9.97189 39.7151 9.93607 39.9291 9.94258 40.1436C9.94909 40.3582 9.99782 40.5692 10.086 40.765C10.1741 40.9607 10.3 41.137 10.4564 41.2842C10.6127 41.4313 10.7966 41.5465 10.9973 41.6226C11.1981 41.6987 11.4119 41.7344 11.6266 41.7279C11.8412 41.7214 12.0525 41.6728 12.2483 41.5846C12.4441 41.4965 12.6206 41.3706 12.7677 41.2143C14.927 38.9243 18.3811 38.4902 21.0362 40.18C23.6917 41.8701 24.7581 45.1832 23.5966 48.1081C22.4351 51.0326 19.3841 52.7076 16.2925 52.1162C13.2006 51.5255 10.9864 48.8418 10.9864 45.6949C10.9895 45.4784 10.9495 45.2638 10.8687 45.0628C10.7879 44.8619 10.668 44.6787 10.5159 44.5245C10.3638 44.3703 10.1826 44.2481 9.98278 44.1646C9.78294 44.081 9.56849 44.0377 9.35187 44.0377C9.13525 44.0377 8.92079 44.081 8.72096 44.1646C8.52113 44.2481 8.3399 44.3703 8.18782 44.5245C8.03573 44.6787 7.91582 44.8619 7.83505 45.0628C7.75428 45.2638 7.71426 45.4784 7.71733 45.6949C7.71733 50.3894 11.0672 54.4454 15.6795 55.3274C20.2915 56.2088 24.9033 53.6773 26.6359 49.3144C28.3685 44.9512 26.7536 39.9436 22.7921 37.4225C20.8117 36.1622 18.5145 35.6989 16.3114 35.9735V35.9735Z" fill="white"/>
<path d="M17.9857 41.131C17.5513 41.131 17.1347 41.3036 16.8275 41.6106C16.5203 41.9177 16.3477 42.334 16.3477 42.7683C16.3477 43.2026 16.5203 43.6193 16.8275 43.9264C17.1347 44.2335 17.5513 44.4061 17.9857 44.4061C18.6052 44.4061 19.071 44.8712 19.071 45.4907C19.071 45.925 19.2436 46.3417 19.5507 46.6488C19.8579 46.9558 20.2745 47.1284 20.7088 47.1284C21.1432 47.1284 21.5598 46.9558 21.8669 46.6488C22.1741 46.3417 22.3466 45.925 22.3466 45.4907C22.3466 43.102 20.3751 41.131 17.9857 41.131V41.131Z" fill="white"/>
<path fill-rule="evenodd" clip-rule="evenodd" d="M1.66064 18.3308C1.44442 18.3275 1.22969 18.3667 1.02888 18.4469C0.82807 18.5271 0.645167 18.6464 0.49077 18.7977C0.336372 18.9491 0.213546 19.1297 0.129406 19.3289C0.0452663 19.528 0.00148493 19.742 0.000596163 19.9582C-8.53041e-05 19.9854 -8.53041e-05 20.0123 0.000596163 20.0396C0.000596163 20.0396 0.000596163 20.0855 0.000596163 20.0855C-0.000198721 20.1149 -0.000198721 20.1442 0.000596163 20.1737C0.000596163 20.2946 0.118283 22.4615 0.530515 25.0633C0.743006 26.4001 1.03036 27.8241 1.44357 29.1297C1.85678 30.4351 2.33571 31.6356 3.28243 32.5768C3.43356 32.7329 3.61429 32.8573 3.81408 32.9427C4.01386 33.0282 4.22868 33.073 4.44597 33.0744C4.66327 33.0759 4.87868 33.0339 5.0796 32.9511C5.28053 32.8684 5.46294 32.7468 5.61617 32.5928C5.7694 32.4387 5.89038 32.2554 5.97202 32.054C6.05367 31.8527 6.09434 31.6372 6.09167 31.4199C6.089 31.2027 6.04303 30.9883 5.95646 30.789C5.86988 30.5898 5.74444 30.4097 5.58747 30.2595C5.35209 30.0274 4.89606 29.2103 4.55967 28.1469C4.22295 27.0834 3.95129 25.788 3.75514 24.5529C3.559 23.3195 3.58188 23.0763 3.50669 22.2168C5.11476 22.7873 6.73753 23.4546 8.76142 23.774C15.4362 24.8289 21.8584 22.7658 27.2393 24.1826C28.2805 24.4572 30.2021 25.4404 31.7215 26.3463C33.2413 27.2522 34.4225 28.0639 34.4225 28.0639C34.6762 28.2397 34.9746 28.3399 35.2831 28.3532C35.5916 28.3665 35.8975 28.2922 36.1655 28.1389C36.1655 28.1389 37.6523 27.2807 39.5497 26.3323C41.4471 25.384 43.8067 24.3594 45.1748 24.0537C50.4812 22.8693 56.65 24.7127 63.0973 23.7788C65.1705 23.478 66.9414 22.8053 68.5181 22.2787C68.5181 23.0613 68.5606 23.2581 68.4102 24.4811C68.2664 25.6753 68.0221 26.9754 67.6505 28.164C67.5226 28.5775 67.5639 29.0248 67.7653 29.4079C67.9667 29.7909 68.3118 30.0784 68.7249 30.2076C69.138 30.3368 69.5855 30.2971 69.9694 30.0971C70.3532 29.897 70.6421 29.5531 70.7728 29.1405C71.2249 27.6943 71.4913 26.2169 71.6538 24.8766C71.9853 22.1995 71.8957 20.0316 71.8957 20.0316C71.8859 19.7763 71.8163 19.5269 71.6926 19.3033C71.5689 19.0798 71.3945 18.8882 71.1834 18.7442C70.9723 18.6003 70.7304 18.508 70.477 18.4745C70.2237 18.4409 69.966 18.4671 69.7247 18.5511C69.7247 18.5511 64.7531 20.2287 62.6311 20.536C57.1704 21.3271 50.8944 19.419 44.4595 20.8565C42.4471 21.3056 40.0786 22.4078 38.0874 23.4032C36.5974 24.1479 35.9593 24.5195 35.4251 24.8203C34.954 24.5032 34.5352 24.2108 33.3947 23.5305C31.7719 22.5632 29.85 21.4826 28.0759 21.0161C21.4412 19.2691 14.8736 21.4285 9.27238 20.5436C7.15892 20.2098 2.19121 18.4178 2.19121 18.4178C2.01571 18.3505 1.82992 18.3142 1.64201 18.3101L1.66064 18.3308Z" fill="white"/>
<path fill-rule="evenodd" clip-rule="evenodd" d="M37.8506 52.2435C37.4368 52.2535 37.0421 52.42 36.7464 52.7096L31.0254 58.3204C30.7597 58.582 30.5915 58.9265 30.5487 59.2969C30.5059 59.6673 30.5911 60.041 30.7901 60.3564L36.511 69.4525C36.6583 69.6859 36.8623 69.878 37.1041 70.0112C37.3458 70.1444 37.6173 70.2143 37.8933 70.2143C38.1693 70.2143 38.4409 70.1444 38.6826 70.0112C38.9243 69.878 39.1283 69.6859 39.2756 69.4525L44.9966 60.3564C45.1956 60.041 45.2807 59.6673 45.2379 59.2969C45.1951 58.9265 45.0269 58.582 44.7612 58.3204L39.0403 52.7096C38.8837 52.5563 38.6978 52.4357 38.4938 52.3556C38.2898 52.2756 38.0717 52.2376 37.8526 52.2435H37.8506ZM37.8964 56.1691L41.5294 59.731L37.8902 65.5138L34.2569 59.731L37.8964 56.1691Z" fill="white"/>
<path d="M106.487 48.8171C108.051 46.6382 110.16 44.9901 112.814 43.8727C115.468 42.7553 118.526 42.1966 121.99 42.1966V54.2643C120.538 54.1526 119.56 54.0967 119.057 54.0967C115.314 54.0967 112.381 55.1442 110.258 57.2393C108.135 59.3344 107.073 62.477 107.073 66.6672V87.9533H94V42.867H106.487V48.8171ZM129.784 87.9533V42.867H142.857V87.9533H129.784ZM136.321 36.5818C133.918 36.5818 131.963 35.8834 130.454 34.4867C128.946 33.09 128.192 31.358 128.192 29.2909C128.192 27.2237 128.946 25.4918 130.454 24.0951C131.963 22.6984 133.918 22 136.321 22C138.723 22 140.678 22.6704 142.187 24.0113C143.695 25.3521 144.45 27.0282 144.45 29.0395C144.45 31.2184 143.695 33.0201 142.187 34.4448C140.678 35.8695 138.723 36.5818 136.321 36.5818ZM151.657 104.882C147.075 104.882 143.584 104.044 141.181 102.367L144.701 92.8977C146.21 93.9592 148.053 94.4899 150.232 94.4899C151.908 94.4899 153.221 93.9452 154.171 92.8558C155.121 91.7663 155.595 90.1321 155.595 87.9533V42.867H168.669V87.8695C168.669 93.1211 167.174 97.2694 164.185 100.314C161.196 103.359 157.02 104.882 151.657 104.882ZM162.132 36.5818C159.73 36.5818 157.774 35.8834 156.266 34.4867C154.757 33.09 154.003 31.358 154.003 29.2909C154.003 27.2237 154.757 25.4918 156.266 24.0951C157.774 22.6984 159.73 22 162.132 22C164.535 22 166.49 22.6704 167.998 24.0113C169.507 25.3521 170.261 27.0282 170.261 29.0395C170.261 31.2184 169.507 33.0201 167.998 34.4448C166.49 35.8695 164.535 36.5818 162.132 36.5818ZM202.19 88.6237C197.441 88.6237 193.181 87.632 189.41 85.6487C185.639 83.6653 182.692 80.9138 180.569 77.394C178.446 73.8743 177.384 69.8797 177.384 65.4101C177.384 60.9406 178.446 56.946 180.569 53.4263C182.692 49.9065 185.639 47.155 189.41 45.1716C193.181 43.1883 197.441 42.1966 202.19 42.1966C206.939 42.1966 211.185 43.1883 214.928 45.1716C218.672 47.155 221.605 49.9065 223.728 53.4263C225.851 56.946 226.912 60.9406 226.912 65.4101C226.912 69.8797 225.851 73.8743 223.728 77.394C221.605 80.9138 218.672 83.6653 214.928 85.6487C211.185 87.632 206.939 88.6237 202.19 88.6237ZM202.19 77.8969C205.542 77.8969 208.294 76.7655 210.445 74.5028C212.596 72.2401 213.671 69.2092 213.671 65.4101C213.671 61.6111 212.596 58.5802 210.445 56.3175C208.294 54.0548 205.542 52.9234 202.19 52.9234C198.838 52.9234 196.073 54.0548 193.894 56.3175C191.715 58.5802 190.625 61.6111 190.625 65.4101C190.625 69.2092 191.715 72.2401 193.894 74.5028C196.073 76.7655 198.838 77.8969 202.19 77.8969Z" fill="white"/>
</svg>
